<?xml version="1.0" standalone="no"?>
<!DOCTYPE svg PUBLIC "-//W3C//DTD SVG 1.1//EN" "http://www.w3.org/Graphics/SVG/1.1/DTD/svg11.dtd">
<svg width="100%" height="100%" viewBox="0 0 256 256" version="1.1" xmlns="http://www.w3.org/2000/svg" xmlns:xlink="http://www.w3.org/1999/xlink" xml:space="preserve" style="fill-rule:evenodd;clip-rule:evenodd;stroke-linejoin:round;stroke-miterlimit:1.41421;">
    <g transform="matrix(0.38847,0,0,0.38847,-9.69237,83.5818)">
        <g id="Layer1">
            <g>
                <path d="M84.448,121.165L77.348,102.065L74.148,103.265L84.148,129.415L84.748,129.415L94.748,103.265L91.548,102.065L84.448,121.165Z" style="fill:rgb(83,83,83);fill-rule:nonzero;"/>
                <path d="M107.298,128.765L123.548,128.765L123.548,125.765L110.648,125.765L110.648,116.515L121.298,116.515L121.298,113.515L110.648,113.515L110.648,105.715L123.548,105.715L123.548,102.715L107.298,102.715L107.298,128.765Z" style="fill:rgb(83,83,83);fill-rule:nonzero;"/>
                <path d="M140.248,114.615L140.248,105.715L145.648,105.715C148.648,105.715 150.048,107.465 150.048,109.815C150.048,112.765 147.898,114.615 144.648,114.615L140.248,114.615ZM136.898,128.765L140.248,128.765L140.248,117.615L145.098,117.615L151.748,129.415L154.648,127.665L148.248,117.115C151.398,116.165 153.548,113.015 153.548,109.815C153.548,104.765 150.098,102.715 145.748,102.715L136.898,102.715L136.898,128.765Z" style="fill:rgb(83,83,83);fill-rule:nonzero;"/>
                <path d="M172.848,128.765L176.198,128.765L176.198,105.715L183.248,105.715L183.248,102.715L165.648,102.715L165.648,105.715L172.848,105.715L172.848,128.765Z" style="fill:rgb(83,83,83);fill-rule:nonzero;"/>
                <path d="M197.298,128.765L213.548,128.765L213.548,125.765L200.648,125.765L200.648,116.515L211.298,116.515L211.298,113.515L200.648,113.515L200.648,105.715L213.548,105.715L213.548,102.715L197.298,102.715L197.298,128.765Z" style="fill:rgb(83,83,83);fill-rule:nonzero;"/>
                <path d="M234.448,117.915L241.398,129.415L244.398,127.715L236.348,114.965L243.698,103.815L240.648,102.065L234.448,111.965L228.248,102.065L225.198,103.815L232.548,114.965L224.498,127.715L227.498,129.415L234.448,117.915Z" style="fill:rgb(83,83,83);fill-rule:nonzero;"/>
                <path d="M255.998,121.465C256.798,126.115 259.848,129.215 264.698,129.215C269.498,129.215 272.948,126.415 272.948,121.465C272.948,118.765 271.698,116.665 269.348,115.365L263.798,112.915C261.798,112.015 260.298,111.315 260.298,108.865C260.298,106.515 262.398,105.415 264.548,105.415C267.398,105.415 268.748,107.215 269.348,109.765L272.548,108.815C271.498,104.765 268.948,102.265 264.598,102.265C260.498,102.265 256.948,104.715 256.948,109.115C256.948,114.015 260.548,115.015 264.348,116.615C266.898,117.665 269.598,118.465 269.598,121.665C269.598,124.565 267.448,126.065 264.698,126.065C261.198,126.065 259.648,123.715 258.998,120.515L255.998,121.465Z" style="fill:rgb(83,83,83);fill-rule:nonzero;"/>
                <path d="M285.948,128.765L289.298,128.765L289.298,116.515L299.598,116.515L299.598,128.765L302.948,128.765L302.948,102.715L299.598,102.715L299.598,113.515L289.298,113.515L289.298,102.715L285.948,102.715L285.948,128.765Z" style="fill:rgb(83,83,83);fill-rule:nonzero;"/>
                <path d="M329.098,121.665L331.498,129.415L334.798,128.215L326.598,102.715L322.298,102.715L314.098,128.215L317.398,129.415L319.848,121.665L329.098,121.665ZM328.148,118.665L320.748,118.665L324.448,106.615L328.148,118.665Z" style="fill:rgb(83,83,83);fill-rule:nonzero;"/>
                <path d="M345.398,105.715L348.098,105.715L348.098,125.765L345.398,125.765L345.398,128.765L354.098,128.765C363.448,128.765 364.848,123.565 364.848,115.415C364.848,105.765 361.498,102.715 354.098,102.715L345.398,102.715L345.398,105.715ZM351.448,105.715L354.898,105.715C359.048,105.715 361.348,107.765 361.348,115.765C361.348,123.265 359.398,125.765 354.998,125.765L351.448,125.765L351.448,105.715Z" style="fill:rgb(83,83,83);fill-rule:nonzero;"/>
                <path d="M377.298,128.765L393.548,128.765L393.548,125.765L380.648,125.765L380.648,116.515L391.298,116.515L391.298,113.515L380.648,113.515L380.648,105.715L393.548,105.715L393.548,102.715L377.298,102.715L377.298,128.765Z" style="fill:rgb(83,83,83);fill-rule:nonzero;"/>
                <path d="M410.248,114.615L410.248,105.715L415.648,105.715C418.648,105.715 420.048,107.465 420.048,109.815C420.048,112.765 417.898,114.615 414.648,114.615L410.248,114.615ZM406.898,128.765L410.248,128.765L410.248,117.615L415.098,117.615L421.748,129.415L424.648,127.665L418.248,117.115C421.398,116.165 423.548,113.015 423.548,109.815C423.548,104.765 420.098,102.715 415.748,102.715L406.898,102.715L406.898,128.765Z" style="fill:rgb(83,83,83);fill-rule:nonzero;"/>
                <path d="M449.098,121.665L451.498,129.415L454.798,128.215L446.598,102.715L442.298,102.715L434.098,128.215L437.398,129.415L439.848,121.665L449.098,121.665ZM448.148,118.665L440.748,118.665L444.448,106.615L448.148,118.665Z" style="fill:rgb(83,83,83);fill-rule:nonzero;"/>
                <path d="M470.248,114.615L470.248,105.715L475.648,105.715C478.648,105.715 480.048,107.465 480.048,109.815C480.048,112.765 477.898,114.615 474.648,114.615L470.248,114.615ZM466.898,128.765L470.248,128.765L470.248,117.615L475.098,117.615L481.748,129.415L484.648,127.665L478.248,117.115C481.398,116.165 483.548,113.015 483.548,109.815C483.548,104.765 480.098,102.715 475.748,102.715L466.898,102.715L466.898,128.765Z" style="fill:rgb(83,83,83);fill-rule:nonzero;"/>
                <path d="M502.848,128.765L506.198,128.765L506.198,105.715L513.248,105.715L513.248,102.715L495.648,102.715L495.648,105.715L502.848,105.715L502.848,128.765Z" style="fill:rgb(83,83,83);fill-rule:nonzero;"/>
                <rect x="532.148" y="121.365" width="4.6" height="7.4" style="fill:rgb(83,83,83);fill-rule:nonzero;"/>
                <path d="M571.048,121.865C569.498,124.215 567.948,126.065 564.898,126.065C559.598,126.065 558.648,119.765 558.648,115.715C558.648,111.715 559.698,105.415 564.898,105.415C567.448,105.415 568.948,107.265 570.048,109.365L573.098,107.815C571.248,104.365 568.898,102.265 564.848,102.265C560.648,102.265 555.148,105.365 555.148,115.765C555.148,122.215 557.548,129.215 565.148,129.215C569.198,129.215 571.698,127.065 573.798,123.765L571.048,121.865Z" style="fill:rgb(83,83,83);fill-rule:nonzero;"/>
                <path d="M594.448,102.265C590.148,102.265 585.198,105.365 585.198,115.765C585.198,126.215 590.248,129.215 594.448,129.215C603.548,129.215 603.698,117.865 603.698,115.765C603.698,105.265 598.598,102.265 594.448,102.265ZM594.448,105.415C599.498,105.415 600.198,111.915 600.198,115.765C600.198,119.565 599.498,126.065 594.448,126.065C589.398,126.065 588.698,119.565 588.698,115.765C588.698,111.915 589.398,105.415 594.448,105.415Z" style="fill:rgb(83,83,83);fill-rule:nonzero;"/>
                <path d="M624.448,121.415L630.298,107.665L630.398,107.665L631.048,128.765L634.598,128.765L633.548,102.715L629.148,102.715L624.448,114.015L619.748,102.715L615.348,102.715L614.298,128.765L617.848,128.765L618.498,107.665L618.598,107.665L624.448,121.415Z" style="fill:rgb(83,83,83);fill-rule:nonzero;"/>
            </g>
        </g>
    </g>
</svg>
