<?xml version="1.0" standalone="no"?>
<!DOCTYPE svg PUBLIC "-//W3C//DTD SVG 1.1//EN" "http://www.w3.org/Graphics/SVG/1.1/DTD/svg11.dtd">
<svg width="100%" height="100%" viewBox="0 0 256 256" version="1.1" xmlns="http://www.w3.org/2000/svg" xmlns:xlink="http://www.w3.org/1999/xlink" xml:space="preserve" style="fill-rule:evenodd;clip-rule:evenodd;stroke-linejoin:round;stroke-miterlimit:1.41421;">
    <g id="Layer1">
        <g transform="matrix(0.533654,0,0,1,4.19231,0)">
            <rect x="24" y="72" width="208" height="112" style="fill:white;"/>
        </g>
        <g transform="matrix(1,0,0,1,42,1.42109e-14)">
            <path d="M128,17C128,17 187.381,61.223 187,128C186.619,194.777 128,239 128,239" style="fill:none;stroke-width:25px;stroke:white;"/>
        </g>
        <g transform="matrix(0.585586,0,0,0.585586,69.2706,53.045)">
            <path d="M128,17C128,17 187.381,61.223 187,128C186.619,194.777 128,239 128,239" style="fill:none;stroke-width:42.69px;stroke:white;"/>
        </g>
    </g>
    <g transform="matrix(-1.60812e-16,-1,0.6125,-9.84975e-17,0.6,256)">
        <g id="Layer2">
            <path d="M128,48L239,208L17,208L128,48Z" style="fill:white;"/>
        </g>
    </g>
</svg>
