<?xml version="1.0" standalone="no"?>
<!DOCTYPE svg PUBLIC "-//W3C//DTD SVG 1.1//EN" "http://www.w3.org/Graphics/SVG/1.1/DTD/svg11.dtd">
<svg width="100%" height="100%" viewBox="0 0 256 256" version="1.1" xmlns="http://www.w3.org/2000/svg" xmlns:xlink="http://www.w3.org/1999/xlink" xml:space="preserve" style="fill-rule:evenodd;clip-rule:evenodd;stroke-linejoin:round;stroke-miterlimit:1.41421;">
    <g transform="matrix(0.466114,0,0,0.466114,68.0413,69.7581)">
        <g id="Layer1">
            <g>
                <rect x="5.726" y="122.913" width="5.708" height="5.708" style="fill:black;fill-rule:nonzero;"/>
                <rect x="20.023" y="122.913" width="5.708" height="5.708" style="fill:black;fill-rule:nonzero;"/>
                <rect x="34.319" y="122.913" width="5.708" height="5.708" style="fill:black;fill-rule:nonzero;"/>
                <rect x="47.896" y="91.903" width="4.371" height="36.718" style="fill:black;fill-rule:nonzero;"/>
                <path d="M62.244,115.354C62.244,113.742 62.458,112.311 62.887,111.06C63.315,109.808 63.907,108.754 64.661,107.897C65.415,107.04 66.298,106.389 67.309,105.943C68.321,105.497 69.392,105.274 70.523,105.274C71.655,105.274 72.726,105.497 73.738,105.943C74.749,106.389 75.632,107.04 76.386,107.897C77.14,108.754 77.732,109.808 78.16,111.06C78.589,112.311 78.803,113.742 78.803,115.354C78.803,116.965 78.589,118.397 78.16,119.648C77.732,120.899 77.14,121.945 76.386,122.785C75.632,123.625 74.749,124.268 73.738,124.713C72.726,125.159 71.655,125.382 70.523,125.382C69.392,125.382 68.321,125.159 67.309,124.713C66.298,124.268 65.415,123.625 64.661,122.785C63.907,121.945 63.315,120.899 62.887,119.648C62.458,118.397 62.244,116.965 62.244,115.354ZM57.615,115.354C57.615,117.308 57.89,119.125 58.438,120.805C58.987,122.485 59.81,123.951 60.907,125.202C62.004,126.453 63.358,127.43 64.969,128.133C66.581,128.836 68.432,129.188 70.523,129.188C72.649,129.188 74.509,128.836 76.103,128.133C77.697,127.43 79.043,126.453 80.14,125.202C81.237,123.951 82.06,122.485 82.609,120.805C83.157,119.125 83.431,117.308 83.431,115.354C83.431,113.4 83.157,111.574 82.609,109.877C82.06,108.18 81.237,106.706 80.14,105.454C79.043,104.203 77.697,103.217 76.103,102.497C74.509,101.777 72.649,101.417 70.523,101.417C68.432,101.417 66.581,101.777 64.969,102.497C63.358,103.217 62.004,104.203 60.907,105.454C59.81,106.706 58.987,108.18 58.438,109.877C57.89,111.574 57.615,113.4 57.615,115.354Z" style="fill:black;fill-rule:nonzero;"/>
                <path d="M112.127,128.519C111.373,128.965 110.327,129.188 108.99,129.188C107.859,129.188 106.959,128.87 106.29,128.236C105.622,127.602 105.288,126.565 105.288,125.125C104.088,126.565 102.691,127.602 101.096,128.236C99.502,128.87 97.779,129.188 95.928,129.188C94.728,129.188 93.588,129.05 92.508,128.776C91.428,128.502 90.494,128.073 89.705,127.49C88.917,126.908 88.291,126.145 87.828,125.202C87.366,124.259 87.134,123.119 87.134,121.782C87.134,120.274 87.391,119.039 87.906,118.079C88.42,117.119 89.097,116.34 89.937,115.74C90.777,115.14 91.737,114.685 92.817,114.377C93.897,114.068 95.002,113.811 96.134,113.605C97.334,113.365 98.474,113.185 99.554,113.065C100.634,112.945 101.585,112.774 102.408,112.551C103.231,112.328 103.882,112.003 104.362,111.574C104.842,111.145 105.082,110.52 105.082,109.697C105.082,108.737 104.902,107.966 104.542,107.383C104.182,106.8 103.719,106.354 103.153,106.046C102.588,105.737 101.953,105.531 101.251,105.429C100.548,105.326 99.854,105.274 99.168,105.274C97.317,105.274 95.774,105.626 94.54,106.329C93.305,107.031 92.637,108.36 92.534,110.314L88.163,110.314C88.231,108.668 88.574,107.28 89.191,106.149C89.808,105.017 90.631,104.1 91.66,103.397C92.688,102.694 93.862,102.189 95.182,101.88C96.502,101.572 97.917,101.417 99.425,101.417C100.625,101.417 101.816,101.503 102.999,101.674C104.182,101.846 105.253,102.197 106.213,102.729C107.173,103.26 107.945,104.006 108.527,104.966C109.11,105.926 109.402,107.177 109.402,108.72L109.402,122.399C109.402,123.428 109.462,124.182 109.582,124.662C109.702,125.142 110.105,125.382 110.79,125.382C111.167,125.382 111.613,125.296 112.127,125.125L112.127,128.519ZM105.03,114.891C104.482,115.302 103.762,115.602 102.871,115.791C101.979,115.98 101.045,116.134 100.068,116.254C99.091,116.374 98.105,116.511 97.111,116.665C96.117,116.819 95.225,117.068 94.437,117.411C93.648,117.754 93.005,118.242 92.508,118.877C92.011,119.511 91.762,120.376 91.762,121.474C91.762,122.194 91.908,122.802 92.2,123.299C92.491,123.796 92.868,124.199 93.331,124.508C93.794,124.816 94.334,125.039 94.951,125.176C95.568,125.313 96.219,125.382 96.905,125.382C98.345,125.382 99.579,125.185 100.608,124.791C101.636,124.396 102.476,123.899 103.128,123.299C103.779,122.699 104.259,122.048 104.568,121.345C104.876,120.642 105.03,119.982 105.03,119.365L105.03,114.891Z" style="fill:black;fill-rule:nonzero;"/>
                <path d="M119.378,115.56C119.378,114.257 119.516,112.988 119.79,111.754C120.064,110.52 120.51,109.423 121.127,108.463C121.744,107.503 122.567,106.731 123.595,106.149C124.624,105.566 125.875,105.274 127.349,105.274C128.858,105.274 130.144,105.557 131.206,106.123C132.269,106.689 133.135,107.434 133.803,108.36C134.472,109.286 134.961,110.357 135.269,111.574C135.578,112.791 135.732,114.051 135.732,115.354C135.732,116.588 135.586,117.805 135.295,119.005C135.003,120.205 134.532,121.276 133.881,122.219C133.229,123.162 132.389,123.925 131.361,124.508C130.332,125.091 129.081,125.382 127.607,125.382C126.201,125.382 124.975,125.108 123.93,124.559C122.884,124.011 122.027,123.273 121.358,122.348C120.69,121.422 120.193,120.368 119.867,119.185C119.541,118.002 119.378,116.794 119.378,115.56ZM139.949,128.622L139.949,91.903L135.578,91.903L135.578,105.583L135.475,105.583C134.995,104.794 134.403,104.134 133.701,103.603C132.998,103.072 132.252,102.643 131.464,102.317C130.675,101.992 129.887,101.76 129.098,101.623C128.309,101.486 127.572,101.417 126.887,101.417C124.864,101.417 123.09,101.786 121.564,102.523C120.038,103.26 118.77,104.254 117.758,105.506C116.747,106.757 115.993,108.223 115.496,109.903C114.999,111.583 114.75,113.365 114.75,115.251C114.75,117.137 115.007,118.919 115.521,120.599C116.036,122.279 116.799,123.753 117.81,125.022C118.821,126.29 120.09,127.302 121.615,128.056C123.141,128.81 124.932,129.188 126.99,129.188C128.841,129.188 130.538,128.862 132.081,128.21C133.624,127.559 134.755,126.496 135.475,125.022L135.578,125.022L135.578,128.622L139.949,128.622Z" style="fill:black;fill-rule:nonzero;"/>
                <path d="M151.314,97.252L151.314,91.903L146.943,91.903L146.943,97.252L151.314,97.252ZM146.943,102.034L146.943,128.622L151.314,128.622L151.314,102.034L146.943,102.034Z" style="fill:black;fill-rule:nonzero;"/>
                <path d="M158.102,102.034L158.102,128.622L162.474,128.622L162.474,113.605C162.474,112.405 162.637,111.3 162.962,110.288C163.288,109.277 163.776,108.394 164.428,107.64C165.079,106.886 165.894,106.303 166.871,105.891C167.848,105.48 169.005,105.274 170.342,105.274C172.022,105.274 173.342,105.754 174.302,106.714C175.262,107.674 175.742,108.977 175.742,110.623L175.742,128.622L180.113,128.622L180.113,111.137C180.113,109.697 179.967,108.386 179.676,107.203C179.384,106.02 178.879,105 178.159,104.143C177.439,103.286 176.496,102.617 175.33,102.137C174.165,101.657 172.707,101.417 170.959,101.417C167.016,101.417 164.136,103.029 162.319,106.251L162.217,106.251L162.217,102.034L158.102,102.034Z" style="fill:black;fill-rule:nonzero;"/>
                <path d="M209.632,126.359L209.632,102.034L205.517,102.034L205.517,105.84L205.466,105.84C204.678,104.366 203.58,103.26 202.175,102.523C200.769,101.786 199.226,101.417 197.546,101.417C195.249,101.417 193.312,101.854 191.735,102.729C190.158,103.603 188.89,104.717 187.93,106.071C186.97,107.426 186.284,108.934 185.873,110.597C185.461,112.26 185.256,113.88 185.256,115.457C185.256,117.274 185.504,118.997 186.001,120.625C186.498,122.254 187.244,123.676 188.238,124.893C189.232,126.111 190.467,127.079 191.941,127.799C193.415,128.519 195.147,128.879 197.135,128.879C198.849,128.879 200.469,128.493 201.995,127.722C203.52,126.95 204.66,125.742 205.415,124.096L205.517,124.096L205.517,125.845C205.517,127.319 205.372,128.673 205.08,129.907C204.789,131.142 204.318,132.196 203.666,133.07C203.015,133.944 202.192,134.63 201.198,135.127C200.203,135.624 198.986,135.873 197.546,135.873C196.826,135.873 196.072,135.796 195.284,135.642C194.495,135.487 193.767,135.239 193.098,134.896C192.429,134.553 191.864,134.107 191.401,133.559C190.938,133.01 190.69,132.342 190.655,131.553L186.284,131.553C186.353,132.993 186.73,134.21 187.415,135.204C188.101,136.199 188.967,137.004 190.012,137.621C191.058,138.239 192.224,138.684 193.509,138.959C194.795,139.233 196.055,139.37 197.289,139.37C201.541,139.37 204.66,138.29 206.649,136.13C208.637,133.97 209.632,130.713 209.632,126.359ZM197.392,125.073C195.952,125.073 194.752,124.773 193.792,124.173C192.832,123.573 192.061,122.785 191.478,121.808C190.895,120.831 190.484,119.742 190.244,118.542C190.004,117.342 189.884,116.142 189.884,114.942C189.884,113.674 190.03,112.457 190.321,111.291C190.612,110.125 191.075,109.097 191.71,108.206C192.344,107.314 193.158,106.603 194.152,106.071C195.147,105.54 196.346,105.274 197.752,105.274C199.123,105.274 200.289,105.549 201.249,106.097C202.209,106.646 202.989,107.374 203.589,108.283C204.189,109.191 204.626,110.211 204.9,111.343C205.175,112.474 205.312,113.622 205.312,114.788C205.312,116.022 205.166,117.257 204.875,118.491C204.583,119.725 204.129,120.831 203.512,121.808C202.895,122.785 202.08,123.573 201.069,124.173C200.058,124.773 198.832,125.073 197.392,125.073Z" style="fill:black;fill-rule:nonzero;"/>
                <rect x="217.191" y="122.913" width="5.708" height="5.708" style="fill:black;fill-rule:nonzero;"/>
                <rect x="231.488" y="122.913" width="5.708" height="5.708" style="fill:black;fill-rule:nonzero;"/>
                <rect x="245.784" y="122.913" width="5.708" height="5.708" style="fill:black;fill-rule:nonzero;"/>
            </g>
        </g>
    </g>
</svg>
